<?xml version="1.0" encoding="UTF-8" standalone="no"?>
<!-- Created with Inkscape (http://www.inkscape.org/) -->
<svg
   xmlns:dc="http://purl.org/dc/elements/1.1/"
   xmlns:cc="http://creativecommons.org/ns#"
   xmlns:rdf="http://www.w3.org/1999/02/22-rdf-syntax-ns#"
   xmlns:svg="http://www.w3.org/2000/svg"
   xmlns="http://www.w3.org/2000/svg"
   xmlns:sodipodi="http://sodipodi.sourceforge.net/DTD/sodipodi-0.dtd"
   xmlns:inkscape="http://www.inkscape.org/namespaces/inkscape"
   width="222.30249"
   height="225.741"
   id="svg2"
   sodipodi:version="0.32"
   inkscape:version="0.46"
   sodipodi:docname="Logo.svg"
   inkscape:output_extension="org.inkscape.output.svg.inkscape"
   version="1.0">
  <defs
     id="defs4">
    <inkscape:perspective
       sodipodi:type="inkscape:persp3d"
       inkscape:vp_x="0 : 526.18109 : 1"
       inkscape:vp_y="0 : 1000 : 0"
       inkscape:vp_z="744.09448 : 526.18109 : 1"
       inkscape:persp3d-origin="372.04724 : 350.78739 : 1"
       id="perspective10" />
    <inkscape:perspective
       id="perspective2390"
       inkscape:persp3d-origin="372.04724 : 350.78739 : 1"
       inkscape:vp_z="744.09448 : 526.18109 : 1"
       inkscape:vp_y="0 : 1000 : 0"
       inkscape:vp_x="0 : 526.18109 : 1"
       sodipodi:type="inkscape:persp3d" />
    <inkscape:perspective
       id="perspective3188"
       inkscape:persp3d-origin="372.04724 : 350.78739 : 1"
       inkscape:vp_z="744.09448 : 526.18109 : 1"
       inkscape:vp_y="0 : 1000 : 0"
       inkscape:vp_x="0 : 526.18109 : 1"
       sodipodi:type="inkscape:persp3d" />
    <inkscape:perspective
       id="perspective3324"
       inkscape:persp3d-origin="382.5 : 330 : 1"
       inkscape:vp_z="765 : 495 : 1"
       inkscape:vp_y="0 : 1000 : 0"
       inkscape:vp_x="0 : 495 : 1"
       sodipodi:type="inkscape:persp3d" />
  </defs>
  <sodipodi:namedview
     id="base"
     pagecolor="#ffffff"
     bordercolor="#666666"
     borderopacity="1.0"
     inkscape:pageopacity="0.0"
     inkscape:pageshadow="2"
     inkscape:zoom="2.8284271"
     inkscape:cx="192.65137"
     inkscape:cy="111.32677"
     inkscape:document-units="px"
     inkscape:current-layer="g3293"
     showgrid="true"
     inkscape:snap-global="false"
     showguides="false"
     inkscape:guide-bbox="true"
     inkscape:window-width="1912"
     inkscape:window-height="1125"
     inkscape:window-x="0"
     inkscape:window-y="35">
    <inkscape:grid
       type="xygrid"
       id="grid3176"
       visible="true"
       enabled="true" />
  </sodipodi:namedview>
  <metadata
     id="metadata7">
    <rdf:RDF>
      <cc:Work
         rdf:about="">
        <dc:format>image/svg+xml</dc:format>
        <dc:type
           rdf:resource="http://purl.org/dc/dcmitype/StillImage" />
      </cc:Work>
    </rdf:RDF>
  </metadata>
  <g
     inkscape:label="Ebene 1"
     inkscape:groupmode="layer"
     id="layer1"
     transform="translate(-226.84876,-434.0284)">
    <g
       id="g3293"
       clip-path="url(#clp1)"
       transform="translate(87.4955,149.55288)"
       style="fill:none">
      <path
         style="fill:#f20acf;fill-opacity:1;stroke:#000000;stroke-width:19.71372604"
         d="M 149.21012,485.80444 C 149.21012,485.80444 149.21012,497.82957 160.84468,497.82957 C 160.84468,497.82957 340.16432,497.82957 340.16432,497.82957 C 340.16432,497.82957 351.79888,497.82957 351.79888,485.80444 C 351.79888,485.80444 351.79888,307.89663 351.79888,307.89663 C 351.79888,307.89663 351.79888,295.87149 340.16432,295.87149 C 340.16432,295.87149 160.84468,295.87149 160.84468,295.87149 C 160.84468,295.87149 149.21012,295.87149 149.21012,307.89663 C 149.21012,307.89663 149.21012,485.80444 149.21012,485.80444 z"
         id="path3301" />
      <g
         id="g3303"
         transform="matrix(0,-1,1,0,267.21558,755.43382)">
        <path
           id="path3305"
           d="M 314.264,30.666 C 325.551,42.407 341.143,49.668 358.366,49.668 C 392.811,49.668 420.735,20.622 420.735,-15.207 C 420.735,-51.036 392.811,-80.082 358.366,-80.082 C 341.144,-80.082 325.552,-72.821 314.265,-61.081"
           style="stroke:#000000;stroke-width:20" />
      </g>
      <path
         style="fill:#ffa79b;fill-opacity:1;stroke:#000000;stroke-width:20"
         d="M 278.03848,397.09652 C 278.03848,383.33552 266.35948,372.18052 251.95348,372.18052 C 237.54748,372.18052 225.86848,383.33552 225.86848,397.09652 C 225.86848,410.85752 237.54748,422.01152 251.95448,422.01152 C 266.36148,422.01152 278.03848,410.85652 278.03848,397.09652 z"
         id="path3309" />
      <g
         id="g3311"
         transform="matrix(0,-1,1,0,249.15848,647.85052)">
        <path
           id="path3313"
           d="M 222.972,6.006 L 147.634,6.006"
           style="stroke:#000000;stroke-width:20" />
      </g>
      <g
         id="g3315"
         transform="matrix(0,-1,1,0,249.15848,647.85052)">
        <path
           id="path3317"
           d="M 316.081,3.16 L 353.375,3.16"
           style="stroke:#000000;stroke-width:20" />
      </g>
    </g>
  </g>
</svg>
